<svg width="18" height="18" viewBox="0 0 18 18" fill="none" xmlns="http://www.w3.org/2000/svg">
<path d="M9 2.442C11.136 2.442 11.3893 2.45 12.2333 2.48867C14.4013 2.58733 15.414 3.616 15.5127 5.768C15.5513 6.61133 15.5587 6.86467 15.5587 9.00067C15.5587 11.1373 15.5507 11.39 15.5127 12.2333C15.4133 14.3833 14.4033 15.414 12.2333 15.5127C11.3893 15.5513 11.1373 15.5593 9 15.5593C6.864 15.5593 6.61067 15.5513 5.76733 15.5127C3.594 15.4133 2.58667 14.38 2.488 12.2327C2.44933 11.3893 2.44133 11.1367 2.44133 9C2.44133 6.864 2.45 6.61133 2.488 5.76733C2.58733 3.616 3.59733 2.58667 5.76733 2.488C6.61133 2.45 6.864 2.442 9 2.442V2.442ZM9 1C6.82733 1 6.55533 1.00933 5.702 1.048C2.79667 1.18133 1.182 2.79333 1.04867 5.70133C1.00933 6.55533 1 6.82733 1 9C1 11.1727 1.00933 11.4453 1.048 12.2987C1.18133 15.204 2.79333 16.8187 5.70133 16.952C6.55533 16.9907 6.82733 17 9 17C11.1727 17 11.4453 16.9907 12.2987 16.952C15.2013 16.8187 16.82 15.2067 16.9513 12.2987C16.9907 11.4453 17 11.1727 17 9C17 6.82733 16.9907 6.55533 16.952 5.702C16.8213 2.79933 15.2073 1.182 12.2993 1.04867C11.4453 1.00933 11.1727 1 9 1V1ZM9 4.892C6.73133 4.892 4.892 6.73133 4.892 9C4.892 11.2687 6.73133 13.1087 9 13.1087C11.2687 13.1087 13.108 11.2693 13.108 9C13.108 6.73133 11.2687 4.892 9 4.892ZM9 11.6667C7.52733 11.6667 6.33333 10.4733 6.33333 9C6.33333 7.52733 7.52733 6.33333 9 6.33333C10.4727 6.33333 11.6667 7.52733 11.6667 9C11.6667 10.4733 10.4727 11.6667 9 11.6667ZM13.2707 3.77C12.74 3.77 12.31 4.2 12.31 4.73C12.31 5.26 12.74 5.69 13.2707 5.69C13.8007 5.69 14.23 5.26 14.23 4.73C14.23 4.2 13.8007 3.77 13.2707 3.77Z" fill="currentColor"/>
</svg>
