<svg width="18" height="18" viewBox="0 0 18 18" fill="none" xmlns="http://www.w3.org/2000/svg">
  <path d="M8.98118 1C7.81412 1.0117 6.77255 1.07605 5.85647 1.19304C4.84 1.32173 4.03686 1.51477 3.44706 1.77215L3.18353 1.91255C2.98275 2.02954 2.78196 2.17578 2.58118 2.35127C2.3051 2.59695 2.06667 2.87189 1.86588 3.17607C1.60235 3.56215 1.40157 3.98917 1.26353 4.45714C1.08784 5.00701 1 5.60953 1 6.26469V6.914C1 7.81484 1.00627 8.51095 1.01882 9.00232C1.05647 10.3243 1.16941 11.4241 1.35765 12.3015C1.59608 13.413 1.9851 14.3138 2.52471 15.0041C3.15216 15.7879 3.99294 16.3085 5.04706 16.5659C6.4149 16.9052 7.73255 17.0456 9 16.9871C9.57725 16.952 10.1294 16.8818 10.6565 16.7765C11.0329 16.6946 11.378 16.5952 11.6918 16.4782L12.0494 16.3378L11.9741 15.0216L11.56 15.1269C11.2086 15.1971 10.851 15.2556 10.4871 15.3024C9.97255 15.3726 9.48314 15.396 9.01882 15.3726C8.35373 15.3609 7.85176 15.3199 7.51294 15.2498C6.97333 15.1562 6.55294 14.9807 6.25176 14.7233C5.88784 14.4308 5.66824 14.0096 5.59294 13.4598C5.56784 13.296 5.55529 13.1263 5.55529 12.9508L6.02588 13.0561C6.4149 13.1263 6.82274 13.1848 7.24941 13.2316C7.85176 13.3135 8.43529 13.3662 9 13.3896C9.52706 13.413 10.1043 13.4013 10.7318 13.3545C11.1333 13.3311 11.6855 13.2784 12.3882 13.1965C13.091 13.1146 13.7624 12.9391 14.4024 12.6701C15.0173 12.401 15.5286 12.0822 15.9365 11.7136C16.3443 11.3451 16.5859 10.9737 16.6612 10.5993C16.7741 10.0728 16.8557 9.4352 16.9059 8.68644C16.9561 8.14827 16.9875 7.58086 17 6.98419V6.26469C17 5.60953 16.9122 5.00701 16.7365 4.45714C16.5984 3.98917 16.3976 3.56215 16.1341 3.17607C15.9333 2.87189 15.6949 2.59695 15.4188 2.35127C15.2306 2.17578 15.0298 2.02954 14.8165 1.91255C14.6659 1.81895 14.578 1.77215 14.5529 1.77215C13.9757 1.51477 13.1788 1.32173 12.1624 1.19304C11.2337 1.07605 10.1922 1.0117 9.03765 1H8.98118ZM6.49647 3.72009C7.41255 3.72009 8.09647 4.04767 8.54823 4.70283L9 5.38724L9.45176 4.70283C9.90353 4.04767 10.5875 3.72009 11.5035 3.72009C12.2941 3.72009 12.9278 3.97162 13.4047 4.47469C13.8816 4.97776 14.12 5.66217 14.12 6.52792V10.7221H12.3318V6.65076C12.3318 5.78501 11.949 5.35214 11.1835 5.35214C10.3176 5.35214 9.88471 5.86691 9.88471 6.89645V9.12517H8.11529V6.89645C8.11529 5.86691 7.68235 5.35214 6.81647 5.35214C6.05098 5.35214 5.66824 5.78501 5.66824 6.65076V10.7221H3.88V6.52792C3.88 5.66217 4.11843 4.97776 4.59529 4.47469C5.07216 3.97162 5.70588 3.72009 6.49647 3.72009Z" fill="currentColor"/>
</svg>
